<svg width="84" height="41" viewBox="0 0 84 41" fill="none" xmlns="http://www.w3.org/2000/svg">
<rect y="3.8147e-06" width="84" height="41" rx="5" fill="#2D2D2D"/>
<rect x="7" y="4.00001" width="70" height="32" rx="5" fill="#696969"/>
<path d="M16.8295 23.4545C16.7784 23.0227 16.571 22.6875 16.2074 22.4489C15.8438 22.2102 15.3977 22.0909 14.8693 22.0909C14.483 22.0909 14.1449 22.1534 13.8551 22.2784C13.5682 22.4034 13.3438 22.5753 13.1818 22.794C13.0227 23.0128 12.9432 23.2614 12.9432 23.5398C12.9432 23.7727 12.9986 23.973 13.1094 24.1406C13.223 24.3054 13.3679 24.4432 13.544 24.554C13.7202 24.6619 13.9048 24.7514 14.098 24.8224C14.2912 24.8906 14.4688 24.946 14.6307 24.9886L15.517 25.2273C15.7443 25.2869 15.9972 25.3693 16.2756 25.4744C16.5568 25.5795 16.8253 25.723 17.081 25.9048C17.3395 26.0838 17.5526 26.3139 17.7202 26.5952C17.8878 26.8764 17.9716 27.2216 17.9716 27.6307C17.9716 28.1023 17.848 28.5284 17.6009 28.9091C17.3565 29.2898 16.9986 29.5923 16.527 29.8168C16.0582 30.0412 15.4886 30.1534 14.8182 30.1534C14.1932 30.1534 13.652 30.0526 13.1946 29.8509C12.7401 29.6491 12.3821 29.3679 12.1207 29.0071C11.8622 28.6463 11.7159 28.2273 11.6818 27.75H12.7727C12.8011 28.0795 12.9119 28.3523 13.1051 28.5682C13.3011 28.7812 13.5483 28.9403 13.8466 29.0455C14.1477 29.1477 14.4716 29.1989 14.8182 29.1989C15.2216 29.1989 15.5838 29.1335 15.9048 29.0028C16.2259 28.8693 16.4801 28.6847 16.6676 28.4489C16.8551 28.2102 16.9489 27.9318 16.9489 27.6136C16.9489 27.3239 16.8679 27.0881 16.706 26.9062C16.544 26.7244 16.331 26.5767 16.0668 26.4631C15.8026 26.3494 15.517 26.25 15.2102 26.1648L14.1364 25.858C13.4545 25.6619 12.9148 25.3821 12.517 25.0185C12.1193 24.6548 11.9205 24.179 11.9205 23.5909C11.9205 23.1023 12.0526 22.6761 12.3168 22.3125C12.5838 21.946 12.9418 21.6619 13.3906 21.4602C13.8423 21.2557 14.3466 21.1534 14.9034 21.1534C15.4659 21.1534 15.9659 21.2543 16.4034 21.456C16.8409 21.6548 17.1875 21.9276 17.4432 22.2741C17.7017 22.6207 17.8381 23.0142 17.8523 23.4545H16.8295ZM19.7092 30V21.2727H22.658C23.3427 21.2727 23.9023 21.3963 24.337 21.6435C24.7745 21.8878 25.0984 22.2188 25.3086 22.6364C25.5188 23.054 25.6239 23.5199 25.6239 24.0341C25.6239 24.5483 25.5188 25.0156 25.3086 25.4361C25.1012 25.8565 24.7802 26.1918 24.3455 26.4418C23.9109 26.6889 23.354 26.8125 22.6751 26.8125H20.5614V25.875H22.641C23.1097 25.875 23.4862 25.794 23.7702 25.6321C24.0543 25.4702 24.2603 25.2514 24.3881 24.9759C24.5188 24.6974 24.5842 24.3835 24.5842 24.0341C24.5842 23.6847 24.5188 23.3722 24.3881 23.0966C24.2603 22.821 24.0529 22.6051 23.766 22.4489C23.479 22.2898 23.0984 22.2102 22.6239 22.2102H20.766V30H19.7092ZM26.7937 30H25.6857L28.8903 21.2727H29.9812L33.1857 30H32.0778L29.4698 22.6534H29.4016L26.7937 30ZM27.2028 26.5909H31.6687V27.5284H27.2028V26.5909ZM41.1577 24H40.1009C40.0384 23.696 39.929 23.429 39.7727 23.1989C39.6193 22.9688 39.4318 22.7756 39.2102 22.6193C38.9915 22.4602 38.7486 22.3409 38.4815 22.2614C38.2145 22.1818 37.9361 22.142 37.6463 22.142C37.1179 22.142 36.6392 22.2756 36.2102 22.5426C35.7841 22.8097 35.4446 23.2031 35.1918 23.723C34.9418 24.2429 34.8168 24.8807 34.8168 25.6364C34.8168 26.392 34.9418 27.0298 35.1918 27.5497C35.4446 28.0696 35.7841 28.4631 36.2102 28.7301C36.6392 28.9972 37.1179 29.1307 37.6463 29.1307C37.9361 29.1307 38.2145 29.0909 38.4815 29.0114C38.7486 28.9318 38.9915 28.8139 39.2102 28.6577C39.4318 28.4986 39.6193 28.304 39.7727 28.0739C39.929 27.8409 40.0384 27.5739 40.1009 27.2727H41.1577C41.0781 27.7187 40.9332 28.1179 40.723 28.4702C40.5128 28.8224 40.2514 29.1222 39.9389 29.3693C39.6264 29.6136 39.2756 29.7997 38.8864 29.9276C38.5 30.0554 38.0866 30.1193 37.6463 30.1193C36.902 30.1193 36.2401 29.9375 35.6605 29.5739C35.081 29.2102 34.625 28.6932 34.2926 28.0227C33.9602 27.3523 33.794 26.5568 33.794 25.6364C33.794 24.7159 33.9602 23.9205 34.2926 23.25C34.625 22.5795 35.081 22.0625 35.6605 21.6989C36.2401 21.3352 36.902 21.1534 37.6463 21.1534C38.0866 21.1534 38.5 21.2173 38.8864 21.3452C39.2756 21.473 39.6264 21.6605 39.9389 21.9077C40.2514 22.152 40.5128 22.4503 40.723 22.8026C40.9332 23.152 41.0781 23.5511 41.1577 24ZM42.8654 30V21.2727H48.1325V22.2102H43.9222V25.1591H47.8597V26.0966H43.9222V29.0625H48.2006V30H42.8654Z" fill="#040404"/>
</svg>
