<svg width="36" height="36" viewBox="0 0 36 36" fill="none" xmlns="http://www.w3.org/2000/svg">
<circle cx="18" cy="18" r="17.5" stroke="black"/>
<circle cx="18" cy="18" r="14.25" stroke="black" stroke-width="1.5"/>
<path d="M9.78178 15.5085V14.7273H15.2363V15.5085H12.9494V22H12.0687V15.5085H9.78178ZM17.3448 22.1278C16.9992 22.1278 16.6855 22.0627 16.4038 21.9325C16.122 21.8 15.8983 21.6094 15.7326 21.3608C15.5669 21.1098 15.484 20.8068 15.484 20.4517C15.484 20.1392 15.5456 19.8859 15.6687 19.6918C15.7918 19.4953 15.9563 19.3414 16.1623 19.2301C16.3683 19.1188 16.5955 19.036 16.8441 18.9815C17.0951 18.9247 17.3472 18.8797 17.6005 18.8466C17.9319 18.804 18.2006 18.772 18.4066 18.7507C18.6149 18.727 18.7665 18.688 18.8612 18.6335C18.9582 18.5791 19.0067 18.4844 19.0067 18.3494V18.321C19.0067 17.9706 18.9109 17.6984 18.7191 17.5043C18.5297 17.3101 18.2421 17.2131 17.8562 17.2131C17.4561 17.2131 17.1424 17.3007 16.9151 17.4759C16.6879 17.651 16.5281 17.8381 16.4357 18.0369L15.6403 17.7528C15.7823 17.4214 15.9717 17.1634 16.2085 16.9787C16.4476 16.7917 16.708 16.6615 16.9897 16.5881C17.2738 16.5123 17.5531 16.4744 17.8278 16.4744C18.003 16.4744 18.2042 16.4957 18.4315 16.5384C18.6611 16.5786 18.8825 16.6626 19.0955 16.7905C19.311 16.9183 19.4897 17.1113 19.6317 17.3693C19.7738 17.6274 19.8448 17.973 19.8448 18.4062V22H19.0067V21.2614H18.9641C18.9073 21.3797 18.8126 21.5064 18.68 21.6413C18.5475 21.7763 18.3711 21.8911 18.1509 21.9858C17.9308 22.0805 17.6621 22.1278 17.3448 22.1278ZM17.4727 21.375C17.8041 21.375 18.0835 21.3099 18.3107 21.1797C18.5404 21.0495 18.7132 20.8814 18.8292 20.6754C18.9476 20.4695 19.0067 20.2528 19.0067 20.0256V19.2585C18.9712 19.3011 18.8931 19.3402 18.7724 19.3757C18.654 19.4089 18.5167 19.4384 18.3604 19.4645C18.2066 19.4882 18.0562 19.5095 17.9094 19.5284C17.765 19.545 17.6478 19.5592 17.5579 19.571C17.3401 19.5994 17.1365 19.6456 16.9471 19.7095C16.7601 19.7711 16.6085 19.8646 16.4925 19.9901C16.3789 20.1132 16.3221 20.2812 16.3221 20.4943C16.3221 20.7855 16.4298 21.0057 16.6452 21.1548C16.863 21.3016 17.1388 21.375 17.4727 21.375ZM21.3745 24.0455V16.5455H22.1841V17.4119H22.2836C22.3451 17.3172 22.4303 17.1965 22.5392 17.0497C22.6505 16.9006 22.8091 16.768 23.0151 16.652C23.2234 16.5336 23.5051 16.4744 23.8603 16.4744C24.3195 16.4744 24.7244 16.5893 25.0748 16.8189C25.4251 17.0485 25.6986 17.3741 25.8951 17.7955C26.0916 18.2169 26.1898 18.714 26.1898 19.2869C26.1898 19.8646 26.0916 20.3653 25.8951 20.7891C25.6986 21.2105 25.4263 21.5372 25.0783 21.7692C24.7303 21.9988 24.329 22.1136 23.8745 22.1136C23.5241 22.1136 23.2435 22.0556 23.0328 21.9396C22.8221 21.8213 22.66 21.6875 22.5463 21.5384C22.4327 21.3868 22.3451 21.2614 22.2836 21.1619H22.2125V24.0455H21.3745ZM22.1983 19.2727C22.1983 19.6847 22.2587 20.0481 22.3794 20.3629C22.5002 20.6754 22.6766 20.9205 22.9086 21.098C23.1406 21.2732 23.4247 21.3608 23.7608 21.3608C24.1112 21.3608 24.4036 21.2685 24.638 21.0838C24.8747 20.8968 25.0523 20.6458 25.1706 20.331C25.2914 20.0137 25.3517 19.661 25.3517 19.2727C25.3517 18.8892 25.2926 18.5436 25.1742 18.2358C25.0582 17.9257 24.8818 17.6806 24.6451 17.5007C24.4107 17.3184 24.1159 17.2273 23.7608 17.2273C23.4199 17.2273 23.1335 17.3137 22.9015 17.4865C22.6694 17.657 22.4943 17.8961 22.3759 18.2038C22.2575 18.5092 22.1983 18.8655 22.1983 19.2727Z" fill="black"/>
</svg>
