<?xml version="1.0" standalone="no"?>
<!DOCTYPE svg PUBLIC "-//W3C//DTD SVG 20010904//EN"
 "http://www.w3.org/TR/2001/REC-SVG-20010904/DTD/svg10.dtd">
<svg version="1.0" xmlns="http://www.w3.org/2000/svg"
 width="297.000000pt" height="352.000000pt" viewBox="0 0 297.000000 352.000000"
 preserveAspectRatio="xMidYMid meet">

<g transform="translate(0.000000,352.000000) scale(0.100000,-0.100000)"
fill="#000000" stroke="none">
<path d="M1048 3501 c-108 -43 -183 -115 -218 -207 -19 -53 -20 -76 -20 -714
0 -532 -3 -660 -13 -660 -7 0 -35 23 -62 51 -65 65 -154 133 -230 173 -56 29
-67 31 -165 31 -93 0 -112 -3 -160 -26 -113 -54 -171 -143 -178 -274 -7 -133
26 -203 177 -374 130 -147 233 -280 317 -407 114 -173 113 -171 244 -496 73
-181 128 -281 198 -360 87 -96 207 -168 338 -202 187 -49 905 -49 1139 -1 38
8 108 33 154 56 208 102 322 299 377 649 14 86 18 210 21 695 4 584 4 591 -17
648 -28 75 -104 158 -178 194 -58 28 -100 32 -252 21 -33 -3 -35 -1 -54 50
-27 74 -93 144 -174 184 -59 29 -76 33 -147 33 -59 -1 -92 -6 -126 -22 l-46
-20 -47 54 c-60 68 -110 99 -188 119 -50 13 -72 14 -116 5 -31 -6 -61 -11 -67
-11 -14 0 -24 128 -26 320 -1 63 -5 147 -10 187 -14 131 -82 228 -201 289 -71
37 -199 44 -270 15z m202 -221 c62 -44 60 -24 60 -764 0 -778 -8 -716 97 -724
52 -4 63 -1 86 19 l27 24 1 260 c0 143 4 276 10 297 5 21 24 49 44 67 30 26
44 31 87 31 45 0 54 -4 89 -39 27 -27 39 -47 39 -67 0 -16 1 -139 3 -272 l2
-244 29 -25 c26 -22 37 -25 89 -21 94 7 95 11 99 256 l3 204 37 34 c32 29 45
34 85 34 61 0 109 -29 129 -77 13 -30 15 -80 12 -290 l-3 -255 29 -25 c26 -22
37 -25 87 -21 95 7 99 15 99 178 0 126 2 140 23 171 45 69 132 85 193 36 53
-41 54 -50 54 -539 0 -602 -15 -793 -77 -981 -65 -197 -181 -289 -398 -316
-246 -31 -842 -22 -965 15 -176 52 -274 156 -365 389 -71 181 -170 403 -207
463 -104 171 -246 360 -406 542 -95 108 -132 167 -132 213 0 93 96 144 196
102 74 -31 220 -165 352 -323 l52 -63 0 -129 c0 -154 4 -160 106 -160 109 0
98 -102 104 989 l5 946 22 31 c47 66 137 81 203 34z"/>
</g>
</svg>
