<svg width="55" height="55" viewBox="0 0 55 55" fill="none" xmlns="http://www.w3.org/2000/svg">
<rect x="35.75" y="17.3684" width="5.5" height="2.89474" fill="black"/>
<rect width="2.75" height="2.89474" transform="matrix(-1 0 0 1 35.75 17.3684)" fill="black"/>
<rect width="2.75" height="2.89474" transform="matrix(-1 0 0 1 22 14.4737)" fill="black"/>
<rect width="2.75" height="2.89474" transform="matrix(-1 0 0 1 38.5 40.5263)" fill="black"/>
<rect width="2.75" height="2.89474" transform="matrix(-1 0 0 1 24.75 8.68422)" fill="black"/>
<rect width="2.75" height="2.89474" transform="matrix(-1 0 0 1 27.5 14.4737)" fill="black"/>
<rect width="2.75" height="2.89474" transform="matrix(-1 0 0 1 27.5 11.5789)" fill="black"/>
<rect x="38.5" y="34.7369" width="11" height="2.89474" fill="black"/>
<path d="M49.5 37.6316H52.25V40.5263H49.5V37.6316Z" fill="black"/>
<path d="M49.5 46.3158H52.25V49.2105H49.5V46.3158Z" fill="black"/>
<path d="M44 37.6316H49.5V40.5263H44V37.6316Z" fill="#8B8B8B"/>
<path d="M38.5 43.4211H49.5V46.3158H38.5V43.4211Z" fill="black"/>
<rect x="16.5" y="49.2105" width="5.5" height="2.89474" fill="black"/>
<rect x="22" y="52.1053" width="11" height="2.89474" fill="black"/>
<rect width="2.75" height="2.89474" transform="matrix(-1 0 0 1 35.75 49.2105)" fill="black"/>
<rect x="19.25" y="31.8421" width="5.5" height="2.89474" fill="black"/>
<rect x="19.25" y="43.4211" width="5.5" height="2.89474" fill="black"/>
<rect x="27.5" y="34.7369" width="2.75" height="5.78947" fill="black"/>
<rect x="33" y="34.7369" width="2.75" height="2.89474" fill="black"/>
<rect x="30.25" y="37.6316" width="2.75" height="8.68421" fill="black"/>
<rect x="41.25" y="20.2632" width="2.75" height="2.89474" fill="black"/>
<rect x="13.75" y="23.1579" width="2.75" height="2.89474" fill="black"/>
<rect x="35.75" y="20.2632" width="2.75" height="2.89474" fill="black"/>
<rect x="46.75" y="26.0526" width="2.75" height="8.68421" fill="black"/>
<rect x="52.25" y="40.5263" width="2.75" height="5.78947" fill="black"/>
<rect x="44" y="46.3158" width="2.75" height="2.89474" fill="black"/>
<rect x="35.75" y="49.2105" width="8.25" height="2.89474" fill="black"/>
<rect x="33" y="46.3158" width="2.75" height="2.89474" fill="black"/>
<rect x="33" y="23.1579" width="2.75" height="8.68421" fill="black"/>
<rect y="31.8421" width="2.75" height="8.68421" fill="black"/>
<rect x="11" y="26.0526" width="2.75" height="2.89474" fill="black"/>
<rect x="44" y="20.2632" width="2.75" height="5.78947" fill="black"/>
<rect x="16.5" y="17.3684" width="5.5" height="2.89474" fill="black"/>
<rect x="22" y="5.78949" width="2.75" height="2.89474" fill="black"/>
<rect x="16.5" y="20.2632" width="2.75" height="2.89474" fill="black"/>
<rect width="2.75" height="5.78947" transform="matrix(-1 0 0 1 38.5 14.4737)" fill="black"/>
<rect width="2.75" height="2.89474" transform="matrix(-1 0 0 1 35.75 11.5789)" fill="black"/>
<rect width="2.75" height="2.89474" transform="matrix(-1 0 0 1 30.25 5.78949)" fill="black"/>
<rect width="2.75" height="2.89474" transform="matrix(-1 0 0 1 33 0)" fill="black"/>
<rect width="2.75" height="2.89474" transform="matrix(-1 0 0 1 33 8.68422)" fill="black"/>
<rect x="27.5" y="2.89473" width="2.75" height="2.89474" fill="black"/>
<rect x="27.5" y="17.3684" width="2.75" height="2.89474" fill="black"/>
<rect x="24.75" y="49.2105" width="8.25" height="2.89474" fill="#8C7C5F"/>
<rect x="30.25" y="46.3158" width="2.75" height="2.89474" fill="#8C7C5F"/>
<rect x="19.25" y="34.7369" width="8.25" height="2.89474" fill="#EA7941"/>
<rect x="22" y="37.6316" width="5.5" height="2.89474" fill="#EA7941"/>
<rect x="13.75" y="31.8421" width="5.5" height="2.89474" fill="#F7C12B"/>
<rect x="5.5" y="43.4211" width="8.25" height="2.89474" fill="#F7C12B"/>
<rect x="5.5" y="40.5263" width="8.25" height="2.89474" fill="#F7C12B"/>
<rect x="8.25" y="37.6316" width="11" height="2.89474" fill="#F7C12B"/>
<rect x="8.25" y="34.7369" width="8.25" height="2.89474" fill="#F7C12B"/>
<rect x="22" y="17.3684" width="5.5" height="2.89474" fill="#F7C12B"/>
<rect x="27.5" y="11.5789" width="5.5" height="2.89474" fill="#F7C12B"/>
<rect x="30.25" y="34.7369" width="2.75" height="2.89474" fill="#F7C12B"/>
<rect x="30.25" y="17.3684" width="2.75" height="2.89474" fill="#F7C12B"/>
<rect x="33" y="14.4737" width="2.75" height="2.89474" fill="#F7C12B"/>
<rect x="16.5" y="31.8421" width="2.75" height="2.89474" fill="black"/>
<rect x="33" y="20.2632" width="2.75" height="2.89474" fill="#F7C12B"/>
<rect x="24.75" y="2.89473" width="2.75" height="2.89474" fill="#F7C12B"/>
<rect x="19.25" y="11.5789" width="2.75" height="2.89474" fill="#F7C12B"/>
<rect x="16.5" y="23.1579" width="2.75" height="2.89474" fill="#FFDB32" fill-opacity="0.74"/>
<rect x="2.75" y="40.5263" width="2.75" height="2.89474" fill="black"/>
<rect x="22" y="49.2105" width="2.75" height="2.89474" fill="#F7C12B"/>
<rect x="16.5" y="46.3158" width="13.75" height="2.89474" fill="#F7C12B"/>
<rect x="24.75" y="43.4211" width="5.5" height="2.89474" fill="#F7C12B"/>
<rect x="2.75" y="37.6316" width="2.75" height="2.89474" fill="#8C7C5F"/>
<rect x="27.5" y="31.8421" width="8.25" height="2.89474" fill="#F7C12B"/>
<rect x="27.5" y="40.5263" width="2.75" height="2.89474" fill="#F7C12B"/>
<rect x="13.75" y="43.4211" width="5.5" height="2.89474" fill="#F7C12B"/>
<rect x="30.25" y="49.2105" width="2.75" height="2.89474" fill="#F7C12B"/>
<rect x="13.75" y="26.0526" width="19.25" height="5.78947" fill="#F7C12B"/>
<rect x="19.25" y="20.2632" width="13.75" height="5.78947" fill="#F7C12B"/>
<rect x="19.25" y="40.5263" width="5.5" height="2.89474" fill="#EA7941"/>
<rect x="38.5" y="20.2632" width="2.75" height="2.89474" fill="#E5E5E5"/>
<rect x="27.5" y="20.2632" width="2.75" height="2.89474" fill="#FFE777"/>
<rect x="22" y="23.1579" width="2.75" height="2.89474" fill="#FFE777"/>
<rect x="19.25" y="20.2632" width="5.5" height="2.89474" fill="#FFE777"/>
<rect x="27.5" y="14.4737" width="5.5" height="2.89474" fill="#FFE777"/>
<rect x="30.25" y="23.1579" width="2.75" height="5.78947" fill="#FFE777"/>
<rect x="5.5" y="43.4211" width="11" height="2.89474" fill="black"/>
<rect x="22" y="11.5789" width="2.75" height="5.78947" fill="#FFE777"/>
<rect x="2.75" y="28.9474" width="13.75" height="2.89474" fill="black"/>
<rect x="19.25" y="8.68422" width="2.75" height="2.89474" fill="#FFE777"/>
<rect x="27.5" width="2.75" height="2.89474" fill="#FFE777"/>
<rect x="24.75" y="5.78949" width="2.75" height="5.78947" fill="#FFE777"/>
<rect x="27.5" y="8.68422" width="2.75" height="2.89474" fill="#FFE777"/>
<rect x="35.75" y="23.1579" width="2.75" height="5.78947" fill="#E5E5E5"/>
<rect x="35.75" y="28.9474" width="2.75" height="2.89474" fill="#E5E5E5"/>
<rect x="13.75" y="40.5263" width="2.75" height="2.89474" fill="#D69D00"/>
<rect x="2.75" y="34.7369" width="2.75" height="2.89474" fill="#E5E5E5"/>
<rect x="2.75" y="31.8421" width="5.5" height="5.78947" fill="white"/>
<rect x="8.25" y="31.8421" width="5.5" height="2.89474" fill="white"/>
<rect x="38.5" y="31.8421" width="8.25" height="2.89474" fill="white"/>
<rect x="38.5" y="40.5263" width="11" height="2.89474" fill="#E5E5E5"/>
<rect x="33" y="37.6316" width="11" height="2.89474" fill="#E5E5E5"/>
<rect x="35.75" y="46.3158" width="8.25" height="2.89474" fill="#E5E5E5"/>
<rect x="33" y="43.4211" width="5.5" height="2.89474" fill="#E5E5E5"/>
<rect x="38.5" y="23.1579" width="5.5" height="2.89474" fill="white"/>
<rect x="44" y="26.0526" width="2.75" height="5.78947" fill="white"/>
<rect x="35.75" y="34.7369" width="2.75" height="5.78947" fill="#E5E5E5"/>
<rect x="33" y="37.6316" width="2.75" height="5.78947" fill="#E5E5E5"/>
<rect x="16.5" y="34.7369" width="2.75" height="2.89474" fill="white"/>
<rect x="5.5" y="37.6316" width="2.75" height="2.89474" fill="white"/>
<rect x="49.5" y="40.5263" width="2.75" height="5.78947" fill="#E5E5E5"/>
<rect x="8.25" y="34.7369" width="2.75" height="2.89474" fill="white"/>
<rect x="24.75" y="40.5263" width="2.75" height="2.89474" fill="black"/>
<rect x="24.75" y="31.8421" width="2.75" height="2.89474" fill="black"/>
<rect x="19.25" y="34.7369" width="2.75" height="5.78947" fill="black"/>
<rect x="13.75" y="46.3158" width="2.75" height="2.89474" fill="black"/>
<rect x="16.5" y="40.5263" width="2.75" height="2.89474" fill="black"/>
<rect x="35.75" y="31.8421" width="2.75" height="2.89474" fill="black"/>
<rect x="38.5" y="26.0526" width="5.5" height="5.78947" fill="black"/>
<rect x="2.75" y="31.8421" width="2.75" height="2.89474" fill="#F7C12B"/>
</svg>
