<svg width="85" height="46" viewBox="0 0 85 46" fill="none" xmlns="http://www.w3.org/2000/svg">
<rect y="2" width="84" height="41" rx="5" fill="#313030"/>
<path d="M0 7C0 4.23858 2.23858 2 5 2H60.9273C66.105 2 67.8687 8.90408 63.3253 11.3874L7.39807 41.9563C4.06609 43.7775 0 41.3662 0 37.5689V7Z" fill="#171717"/>
<path d="M83.9934 6.77718C83.9934 8.95801 82.4921 10.8519 80.3688 11.3495L9.35841 27.9933L77.6479 2.38001C80.7181 1.22846 83.9934 3.49808 83.9934 6.77718V6.77718Z" fill="#171717"/>
<rect x="51" y="2" width="28" height="6" fill="#171717"/>
<rect x="7" y="6.00001" width="70" height="32" rx="5" fill="#444444"/>
<path d="M16.8295 25.4545C16.7784 25.0227 16.571 24.6875 16.2074 24.4489C15.8438 24.2102 15.3977 24.0909 14.8693 24.0909C14.483 24.0909 14.1449 24.1534 13.8551 24.2784C13.5682 24.4034 13.3438 24.5753 13.1818 24.794C13.0227 25.0128 12.9432 25.2614 12.9432 25.5398C12.9432 25.7727 12.9986 25.973 13.1094 26.1406C13.223 26.3054 13.3679 26.4432 13.544 26.554C13.7202 26.6619 13.9048 26.7514 14.098 26.8224C14.2912 26.8906 14.4688 26.946 14.6307 26.9886L15.517 27.2273C15.7443 27.2869 15.9972 27.3693 16.2756 27.4744C16.5568 27.5795 16.8253 27.723 17.081 27.9048C17.3395 28.0838 17.5526 28.3139 17.7202 28.5952C17.8878 28.8764 17.9716 29.2216 17.9716 29.6307C17.9716 30.1023 17.848 30.5284 17.6009 30.9091C17.3565 31.2898 16.9986 31.5923 16.527 31.8168C16.0582 32.0412 15.4886 32.1534 14.8182 32.1534C14.1932 32.1534 13.652 32.0526 13.1946 31.8509C12.7401 31.6491 12.3821 31.3679 12.1207 31.0071C11.8622 30.6463 11.7159 30.2273 11.6818 29.75H12.7727C12.8011 30.0795 12.9119 30.3523 13.1051 30.5682C13.3011 30.7812 13.5483 30.9403 13.8466 31.0455C14.1477 31.1477 14.4716 31.1989 14.8182 31.1989C15.2216 31.1989 15.5838 31.1335 15.9048 31.0028C16.2259 30.8693 16.4801 30.6847 16.6676 30.4489C16.8551 30.2102 16.9489 29.9318 16.9489 29.6136C16.9489 29.3239 16.8679 29.0881 16.706 28.9062C16.544 28.7244 16.331 28.5767 16.0668 28.4631C15.8026 28.3494 15.517 28.25 15.2102 28.1648L14.1364 27.858C13.4545 27.6619 12.9148 27.3821 12.517 27.0185C12.1193 26.6548 11.9205 26.179 11.9205 25.5909C11.9205 25.1023 12.0526 24.6761 12.3168 24.3125C12.5838 23.946 12.9418 23.6619 13.3906 23.4602C13.8423 23.2557 14.3466 23.1534 14.9034 23.1534C15.4659 23.1534 15.9659 23.2543 16.4034 23.456C16.8409 23.6548 17.1875 23.9276 17.4432 24.2741C17.7017 24.6207 17.8381 25.0142 17.8523 25.4545H16.8295ZM19.7092 32V23.2727H22.658C23.3427 23.2727 23.9023 23.3963 24.337 23.6435C24.7745 23.8878 25.0984 24.2188 25.3086 24.6364C25.5188 25.054 25.6239 25.5199 25.6239 26.0341C25.6239 26.5483 25.5188 27.0156 25.3086 27.4361C25.1012 27.8565 24.7802 28.1918 24.3455 28.4418C23.9109 28.6889 23.354 28.8125 22.6751 28.8125H20.5614V27.875H22.641C23.1097 27.875 23.4862 27.794 23.7702 27.6321C24.0543 27.4702 24.2603 27.2514 24.3881 26.9759C24.5188 26.6974 24.5842 26.3835 24.5842 26.0341C24.5842 25.6847 24.5188 25.3722 24.3881 25.0966C24.2603 24.821 24.0529 24.6051 23.766 24.4489C23.479 24.2898 23.0984 24.2102 22.6239 24.2102H20.766V32H19.7092ZM26.7937 32H25.6857L28.8903 23.2727H29.9812L33.1857 32H32.0778L29.4698 24.6534H29.4016L26.7937 32ZM27.2028 28.5909H31.6687V29.5284H27.2028V28.5909ZM41.1577 26H40.1009C40.0384 25.696 39.929 25.429 39.7727 25.1989C39.6193 24.9688 39.4318 24.7756 39.2102 24.6193C38.9915 24.4602 38.7486 24.3409 38.4815 24.2614C38.2145 24.1818 37.9361 24.142 37.6463 24.142C37.1179 24.142 36.6392 24.2756 36.2102 24.5426C35.7841 24.8097 35.4446 25.2031 35.1918 25.723C34.9418 26.2429 34.8168 26.8807 34.8168 27.6364C34.8168 28.392 34.9418 29.0298 35.1918 29.5497C35.4446 30.0696 35.7841 30.4631 36.2102 30.7301C36.6392 30.9972 37.1179 31.1307 37.6463 31.1307C37.9361 31.1307 38.2145 31.0909 38.4815 31.0114C38.7486 30.9318 38.9915 30.8139 39.2102 30.6577C39.4318 30.4986 39.6193 30.304 39.7727 30.0739C39.929 29.8409 40.0384 29.5739 40.1009 29.2727H41.1577C41.0781 29.7187 40.9332 30.1179 40.723 30.4702C40.5128 30.8224 40.2514 31.1222 39.9389 31.3693C39.6264 31.6136 39.2756 31.7997 38.8864 31.9276C38.5 32.0554 38.0866 32.1193 37.6463 32.1193C36.902 32.1193 36.2401 31.9375 35.6605 31.5739C35.081 31.2102 34.625 30.6932 34.2926 30.0227C33.9602 29.3523 33.794 28.5568 33.794 27.6364C33.794 26.7159 33.9602 25.9205 34.2926 25.25C34.625 24.5795 35.081 24.0625 35.6605 23.6989C36.2401 23.3352 36.902 23.1534 37.6463 23.1534C38.0866 23.1534 38.5 23.2173 38.8864 23.3452C39.2756 23.473 39.6264 23.6605 39.9389 23.9077C40.2514 24.152 40.5128 24.4503 40.723 24.8026C40.9332 25.152 41.0781 25.5511 41.1577 26ZM42.8654 32V23.2727H48.1325V24.2102H43.9222V27.1591H47.8597V28.0966H43.9222V31.0625H48.2006V32H42.8654Z" fill="#171717"/>
</svg>
