<svg width="42" height="42" viewBox="0 0 42 42" fill="none" xmlns="http://www.w3.org/2000/svg">
<circle cx="21" cy="21" r="17.5" fill="#313030" stroke="#171717"/>
<circle cx="21" cy="21" r="20.75" stroke="#171717" stroke-width="0.5"/>
<circle cx="21" cy="21" r="14" fill="#444444" stroke="#171717" stroke-width="2"/>
<path d="M11.1381 18.2102V17.2727H17.6836V18.2102H14.9393V26H13.8825V18.2102H11.1381ZM20.2138 26.1534C19.799 26.1534 19.4226 26.0753 19.0845 25.919C18.7464 25.7599 18.478 25.5312 18.2791 25.233C18.0803 24.9318 17.9808 24.5682 17.9808 24.142C17.9808 23.767 18.0547 23.4631 18.2024 23.2301C18.3501 22.9943 18.5476 22.8097 18.7947 22.6761C19.0419 22.5426 19.3146 22.4432 19.6129 22.3778C19.9141 22.3097 20.2166 22.2557 20.5206 22.2159C20.9183 22.1648 21.2408 22.1264 21.4879 22.1009C21.7379 22.0724 21.9197 22.0256 22.0334 21.9602C22.1499 21.8949 22.2081 21.7812 22.2081 21.6193V21.5852C22.2081 21.1648 22.093 20.8381 21.8629 20.6051C21.6357 20.3722 21.2905 20.2557 20.8274 20.2557C20.3473 20.2557 19.9709 20.3608 19.6982 20.571C19.4254 20.7812 19.2337 21.0057 19.1229 21.2443L18.1683 20.9034C18.3388 20.5057 18.5661 20.196 18.8501 19.9744C19.1371 19.75 19.4496 19.5937 19.7876 19.5057C20.1286 19.4148 20.4638 19.3693 20.7933 19.3693C21.0036 19.3693 21.245 19.3949 21.5178 19.446C21.7933 19.4943 22.0589 19.5952 22.3146 19.7486C22.5732 19.902 22.7876 20.1335 22.9581 20.4432C23.1286 20.7528 23.2138 21.1676 23.2138 21.6875V26H22.2081V25.1136H22.157C22.0888 25.2557 21.9751 25.4077 21.8161 25.5696C21.657 25.7315 21.4453 25.8693 21.1811 25.983C20.9169 26.0966 20.5945 26.1534 20.2138 26.1534ZM20.3672 25.25C20.7649 25.25 21.1001 25.1719 21.3729 25.0156C21.6484 24.8594 21.8558 24.6577 21.995 24.4105C22.1371 24.1634 22.2081 23.9034 22.2081 23.6307V22.7102C22.1655 22.7614 22.0717 22.8082 21.9268 22.8509C21.7848 22.8906 21.62 22.9261 21.4325 22.9574C21.2479 22.9858 21.0675 23.0114 20.8913 23.0341C20.718 23.054 20.5774 23.071 20.4695 23.0852C20.2081 23.1193 19.9638 23.1747 19.7365 23.2514C19.5121 23.3253 19.3303 23.4375 19.1911 23.5881C19.0547 23.7358 18.9865 23.9375 18.9865 24.1932C18.9865 24.5426 19.1158 24.8068 19.3743 24.9858C19.6357 25.1619 19.9666 25.25 20.3672 25.25ZM25.0494 28.4545V19.4545H26.021V20.4943H26.1403C26.2141 20.3807 26.3164 20.2358 26.4471 20.0597C26.5806 19.8807 26.771 19.7216 27.0181 19.5824C27.2681 19.4403 27.6062 19.3693 28.0323 19.3693C28.5835 19.3693 29.0692 19.5071 29.4897 19.7827C29.9102 20.0582 30.2383 20.4489 30.4741 20.9545C30.7099 21.4602 30.8278 22.0568 30.8278 22.7443C30.8278 23.4375 30.7099 24.0384 30.4741 24.5469C30.2383 25.0526 29.9116 25.4446 29.494 25.723C29.0763 25.9986 28.5948 26.1364 28.0494 26.1364C27.6289 26.1364 27.2923 26.0668 27.0394 25.9276C26.7866 25.7855 26.592 25.625 26.4556 25.446C26.3192 25.2642 26.2141 25.1136 26.1403 24.9943H26.055V28.4545H25.0494ZM26.038 22.7273C26.038 23.2216 26.1104 23.6577 26.2553 24.0355C26.4002 24.4105 26.6119 24.7045 26.8903 24.9176C27.1687 25.1278 27.5096 25.233 27.913 25.233C28.3335 25.233 28.6843 25.1222 28.9656 24.9006C29.2496 24.6761 29.4627 24.375 29.6048 23.9972C29.7496 23.6165 29.8221 23.1932 29.8221 22.7273C29.8221 22.267 29.7511 21.8523 29.609 21.483C29.4698 21.1108 29.2582 20.8168 28.9741 20.6009C28.6928 20.3821 28.3391 20.2727 27.913 20.2727C27.5039 20.2727 27.1602 20.3764 26.8817 20.5838C26.6033 20.7884 26.3931 21.0753 26.2511 21.4446C26.109 21.8111 26.038 22.2386 26.038 22.7273Z" fill="black"/>
</svg>
