<!--?xml version="1.0" standalone="no"?-->

<svg version="1.0" xmlns="http://www.w3.org/2000/svg" width="50.000000pt" height="50.000000pt" viewBox="0 0 50.000000 50.000000" preserveAspectRatio="xMidYMid meet" class="" style="">

<g transform="translate(0.000000,50.000000) scale(0.100000,-0.100000)" fill="#000000" stroke="none">
<path d="M20 360 c-17 -17 -20 -33 -20 -115 0 -141 -10 -135 250 -135 260 0
250 -6 250 135 0 141 10 135 -250 135 -197 0 -211 -1 -230 -20z m448 -12 c7
-7 12 -40 12 -78 0 -38 -5 -71 -12 -78 -17 -17 -419 -17 -436 0 -16 16 -16
140 0 156 17 17 419 17 436 0z m12 -188 c0 -26 -35 -30 -230 -30 -195 0 -230
4 -230 30 0 3 104 5 230 5 127 0 230 -2 230 -5z" class="asvoIpYr_0"></path>
</g>
<style data-made-with="vivus-instant">.asvoIpYr_0{stroke-dasharray:3556 3558;stroke-dashoffset:3557;}.start .asvoIpYr_0{animation:asvoIpYr_draw_0 4800ms linear 0ms infinite,asvoIpYr_fade 4800ms linear 0ms infinite;}@keyframes asvoIpYr_draw{100%{stroke-dashoffset:0;}}@keyframes asvoIpYr_fade{0%{stroke-opacity:1;}79.16666666666666%{stroke-opacity:1;}100%{stroke-opacity:0;}}@keyframes asvoIpYr_draw_0{16.666666666666664%{stroke-dashoffset: 3557}79.16666666666666%{ stroke-dashoffset: 0;}100%{ stroke-dashoffset: 0;}}</style></svg>
